<svg xmlns="http://www.w3.org/2000/svg" xmlns:xlink="http://www.w3.org/1999/xlink" width="414" zoomAndPan="magnify" viewBox="0 0 310.5 671.999985" height="896" preserveAspectRatio="xMidYMid meet" version="1.0"><defs><clipPath id="72a6a7d711"><path d="M 143 244 L 218.375 244 L 218.375 321 L 143 321 Z M 143 244 " clip-rule="nonzero"/></clipPath><clipPath id="857cf3c036"><path d="M 93.875 196.121094 L 196 196.121094 L 196 298 L 93.875 298 Z M 93.875 196.121094 " clip-rule="nonzero"/></clipPath></defs><g clip-path="url(#72a6a7d711)"><path fill="#e7f4f2" d="M 169.621094 307.824219 C 165.980469 311.453125 160.058594 311.449219 156.421875 307.824219 C 152.78125 304.195312 152.78125 298.292969 156.421875 294.664062 C 160.058594 291.035156 165.980469 291.039062 169.621094 294.664062 C 173.257812 298.292969 173.261719 304.195312 169.621094 307.824219 Z M 210.617188 264.097656 L 218.375 256.367188 L 218.371094 244.722656 L 209.382812 244.722656 L 170.3125 283.671875 C 163.398438 280.828125 155.140625 282.203125 149.53125 287.792969 C 142.09375 295.210938 142.09375 307.277344 149.53125 314.691406 C 156.96875 322.105469 169.074219 322.105469 176.511719 314.691406 C 182.121094 309.101562 183.5 300.867188 180.652344 293.972656 L 197.039062 277.636719 L 194.644531 271.8125 L 196.367188 270.09375 L 202.207031 272.484375 L 205.449219 269.25 L 203.054688 263.429688 L 204.777344 261.710938 L 210.617188 264.097656 " fill-opacity="1" fill-rule="nonzero"/></g><path fill="#e7f4f2" d="M 171.285156 229.085938 C 171 228.015625 170.023438 227.269531 168.914062 227.269531 L 120.671875 227.269531 C 119.5625 227.269531 118.589844 228.015625 118.304688 229.085938 C 118.015625 230.15625 118.484375 231.28125 119.449219 231.835938 L 143.570312 245.695312 C 143.949219 245.910156 144.371094 246.019531 144.792969 246.019531 C 145.21875 246.019531 145.640625 245.910156 146.019531 245.695312 L 170.140625 231.835938 C 171.101562 231.28125 171.574219 230.15625 171.285156 229.085938 " fill-opacity="1" fill-rule="nonzero"/><path fill="#e7f4f2" d="M 148.0625 249.222656 C 147.070312 249.792969 145.941406 250.097656 144.792969 250.097656 C 143.648438 250.097656 142.519531 249.792969 141.527344 249.222656 L 123.125 238.652344 L 118.21875 235.835938 L 118.21875 264.089844 C 118.21875 265.441406 119.316406 266.535156 120.671875 266.535156 L 168.914062 266.535156 C 170.269531 266.535156 171.367188 265.441406 171.367188 264.089844 L 171.367188 235.832031 L 166.460938 238.652344 L 148.0625 249.222656 " fill-opacity="1" fill-rule="nonzero"/><g clip-path="url(#857cf3c036)"><path fill="#e7f4f2" d="M 103.617188 246.902344 C 103.617188 224.269531 122.089844 205.855469 144.792969 205.855469 C 167.5 205.855469 185.96875 224.269531 185.96875 246.902344 C 185.96875 254.015625 184.144531 260.710938 180.941406 266.550781 L 195.453125 252.085938 C 195.453125 252.082031 195.453125 252.082031 195.453125 252.082031 C 195.625 250.378906 195.714844 248.652344 195.714844 246.902344 C 195.714844 218.914062 172.871094 196.140625 144.792969 196.140625 C 116.71875 196.140625 93.875 218.914062 93.875 246.902344 C 93.875 273.160156 113.96875 294.820312 139.636719 297.40625 C 140.183594 294.070312 141.449219 290.824219 143.433594 287.929688 C 121.355469 287.210938 103.617188 269.082031 103.617188 246.902344 " fill-opacity="1" fill-rule="nonzero"/></g></svg>