<svg xmlns="http://www.w3.org/2000/svg" xmlns:xlink="http://www.w3.org/1999/xlink" width="414" zoomAndPan="magnify" viewBox="0 0 310.5 671.999985" height="896" preserveAspectRatio="xMidYMid meet" version="1.0"><defs><clipPath id="49f5f39121"><path d="M 120 305 L 156 305 L 156 352.15625 L 120 352.15625 Z M 120 305 " clip-rule="nonzero"/></clipPath><clipPath id="7f84910094"><path d="M 76.464844 305 L 136 305 L 136 352 L 76.464844 352 Z M 76.464844 305 " clip-rule="nonzero"/></clipPath><clipPath id="000894093b"><path d="M 174 305 L 233.964844 305 L 233.964844 350 L 174 350 Z M 174 305 " clip-rule="nonzero"/></clipPath><clipPath id="a60cbc8dda"><path d="M 155 305 L 192 305 L 192 352.15625 L 155 352.15625 Z M 155 305 " clip-rule="nonzero"/></clipPath><clipPath id="ea27bb24d4"><path d="M 123 244.90625 L 188 244.90625 L 188 329 L 123 329 Z M 123 244.90625 " clip-rule="nonzero"/></clipPath></defs><g clip-path="url(#49f5f39121)"><path fill="#a3cfc8" d="M 135.074219 305.691406 L 120.460938 339.152344 L 155.117188 352.152344 L 155.195312 309.5625 L 135.074219 305.691406 " fill-opacity="1" fill-rule="nonzero"/></g><g clip-path="url(#7f84910094)"><path fill="#7fb4ac" d="M 116.050781 308.730469 L 77.269531 349.183594 C 76.480469 350.003906 77.28125 351.34375 78.375 351.035156 L 120.460938 339.152344 L 135.074219 305.691406 L 116.050781 308.730469 " fill-opacity="1" fill-rule="nonzero"/></g><g clip-path="url(#000894093b)"><path fill="#a3cfc8" d="M 233.160156 347.636719 L 194.894531 308.730469 L 174.769531 305.691406 L 191.308594 339.152344 L 232.09375 349.507812 C 233.1875 349.785156 233.953125 348.445312 233.160156 347.636719 " fill-opacity="1" fill-rule="nonzero"/></g><g clip-path="url(#a60cbc8dda)"><path fill="#7fb4ac" d="M 155.195312 309.5625 L 155.113281 352.152344 L 191.308594 339.152344 L 174.769531 305.691406 L 155.195312 309.5625 " fill-opacity="1" fill-rule="nonzero"/></g><path fill="#e6fffb" d="M 104.265625 321.027344 L 106.882812 318.296875 L 131.386719 314.128906 L 130.492188 316.175781 L 104.265625 321.027344 " fill-opacity="1" fill-rule="nonzero"/><path fill="#e6fffb" d="M 155.570312 324.699219 L 154.660156 322.664062 L 177.96875 312.164062 L 178.957031 314.164062 L 155.570312 324.699219 " fill-opacity="1" fill-rule="nonzero"/><path fill="#e6fffb" d="M 125.945312 326.59375 L 90.765625 335.105469 L 87.871094 338.125 L 110.925781 332.246094 L 102.898438 344.113281 L 106.230469 343.160156 L 114.171875 331.417969 L 125.050781 328.640625 L 125.945312 326.59375 " fill-opacity="1" fill-rule="nonzero"/><path fill="#fafafa" d="M 218.339844 332.570312 L 198.382812 328.585938 L 189.996094 315.902344 L 204.128906 318.125 L 201.71875 315.675781 L 177.96875 312.164062 L 178.957031 314.164062 L 187.019531 315.433594 L 195.308594 327.96875 L 184.738281 325.859375 L 185.886719 328.183594 L 221.125 335.402344 L 218.339844 332.570312 " fill-opacity="1" fill-rule="nonzero"/><path fill="#e6fffb" d="M 185.886719 328.183594 L 184.738281 325.859375 L 155.140625 337.851562 L 155.140625 340.253906 L 169.453125 334.632812 L 173.042969 345.679688 L 175.160156 344.988281 L 171.527344 333.820312 L 185.886719 328.183594 " fill-opacity="1" fill-rule="nonzero"/><path fill="#fafafa" d="M 139.113281 319.21875 L 154.746094 324.734375 L 155.484375 322.628906 L 131.386719 314.128906 L 130.492188 316.175781 L 137.015625 318.476562 L 133.214844 329.398438 L 125.945312 326.59375 L 125.050781 328.640625 L 155.140625 340.253906 L 155.140625 337.851562 L 135.292969 330.199219 L 139.113281 319.21875 " fill-opacity="1" fill-rule="nonzero"/><g clip-path="url(#ea27bb24d4)"><path fill="#588d85" d="M 187.128906 276.9375 C 187.128906 296.140625 159.597656 328.921875 155.195312 328.921875 C 151.417969 328.921875 123.265625 298.066406 123.265625 276.9375 C 123.265625 259.246094 137.5625 244.902344 155.195312 244.902344 C 172.832031 244.902344 187.128906 259.246094 187.128906 276.9375 " fill-opacity="1" fill-rule="nonzero"/></g><path fill="#fafafa" d="M 174.800781 276.9375 C 174.800781 287.800781 166.023438 296.605469 155.195312 296.605469 C 144.367188 296.605469 135.589844 287.800781 135.589844 276.9375 C 135.589844 266.074219 144.367188 257.269531 155.195312 257.269531 C 166.023438 257.269531 174.800781 266.074219 174.800781 276.9375 " fill-opacity="1" fill-rule="nonzero"/></svg>